<svg aria-hidden="true" style="position: absolute; width: 0; height: 0; overflow: hidden;" version="1.1" xmlns="http://www.w3.org/2000/svg" xmlns:xlink="http://www.w3.org/1999/xlink">
<defs>
<symbol id="icon-agreement" viewBox="0 0 32 32">
<title>agreement</title>
<path d="M31.863 19.862l-2.419-2.419c-0.32-0.32-0.745-0.496-1.198-0.496-0.332 0-0.649 0.095-0.921 0.272l-2.065-2.065 0.716-0.716c0.763-0.764 0.763-2.008-0-2.772-0.329-0.329-0.755-0.526-1.213-0.566 0.198-0.667 0.034-1.42-0.492-1.946-0.307-0.307-0.698-0.499-1.121-0.556 0.088-0.225 0.134-0.466 0.134-0.715 0-0.524-0.204-1.016-0.574-1.386-0.341-0.341-0.778-0.53-1.225-0.567 0.19-0.663 0.024-1.407-0.497-1.929-0.37-0.37-0.863-0.574-1.386-0.574-0.386 0-0.755 0.111-1.070 0.318l-0.129-0.245c-0.3-0.57-0.929-0.893-1.567-0.804l-2.955 0.412c-0.347-0.309-0.789-0.478-1.258-0.478-0.506 0-0.983 0.197-1.341 0.556-0.341 0.341-0.524 0.782-0.55 1.23-0.131-0.028-0.266-0.043-0.403-0.043-0.506 0-0.982 0.197-1.341 0.555v0c-0.518 0.519-0.673 1.265-0.464 1.92-0.407 0.049-0.801 0.229-1.113 0.54 0 0 0 0 0 0-0.487 0.487-0.653 1.177-0.498 1.802-0.434 0.034-0.858 0.217-1.189 0.548v0c-0.739 0.739-0.739 1.942 0 2.681l0.739 0.739c0.081 0.081 0.169 0.153 0.26 0.217 0.082 0.543 0.298 1.057 0.626 1.495l-2.672 2.673c-0.656-0.425-1.544-0.351-2.119 0.224l-2.419 2.419c-0.296 0.296-0.082 0.8 0.331 0.8 0.12 0 0.24-0.046 0.331-0.137l2.419-2.419c0.295-0.295 0.775-0.295 1.069 0l1.505 1.505c0.183 0.183 0.48 0.183 0.663 0s0.183-0.48 0-0.663l-1.092-1.092 2.954-2.954c0.183-0.183 0.183-0.48 0-0.663-0.242-0.242-0.427-0.533-0.546-0.85 0.010 0 0.020 0.001 0.029 0.001 0.485 0 0.971-0.185 1.341-0.554 0.318-0.318 0.509-0.73 0.548-1.173 0.155 0.041 0.317 0.062 0.482 0.062 0.506 0 0.982-0.197 1.341-0.555 0.303-0.303 0.481-0.684 0.536-1.078 0.201 0.071 0.415 0.108 0.634 0.108 0.506 0 0.982-0.197 1.341-0.555 0.654-0.654 0.729-1.671 0.225-2.409 0.338-0.080 0.647-0.252 0.899-0.504 0.006-0.006 0.011-0.012 0.017-0.018 0.086-0.006 0.173-0.016 0.259-0.032l1.086-0.19c0.134 0.006 0.266-0.044 0.361-0.142l0.009-0.008c0-0 0-0 0-0l1.843-1.843c0.005-0.005 0.009-0.010 0.014-0.014l0.141-0.141c0.193-0.193 0.45-0.3 0.723-0.3s0.53 0.106 0.723 0.299c0.398 0.399 0.399 1.048 0 1.446l-0.387 0.387c-0.183 0.183-0.183 0.48 0 0.663s0.48 0.183 0.663 0l0.002-0.002c0.399-0.397 1.046-0.396 1.444 0.002 0.193 0.193 0.299 0.449 0.299 0.723s-0.106 0.53-0.3 0.723l-0.545 0.545c-0.001 0.001-0.002 0.002-0.003 0.003-0.183 0.183-0.183 0.48 0.001 0.663s0.48 0.183 0.663-0l0.002-0.002c0.192-0.192 0.448-0.297 0.721-0.297s0.53 0.106 0.723 0.299c0.398 0.399 0.399 1.048 0 1.446l-0.403 0.403c-0.183 0.183-0.183 0.48-0 0.663s0.48 0.183 0.663 0.001c0.193-0.193 0.45-0.299 0.723-0.299s0.53 0.106 0.723 0.299c0.398 0.399 0.398 1.048 0 1.447l-1.042 1.042c-0.002 0.002-0.004 0.003-0.005 0.005s-0.003 0.004-0.005 0.005l-6.016 6.016c-0.408 0.408-0.951 0.633-1.529 0.633s-1.12-0.225-1.528-0.633l-0.085-0.085c-0.183-0.183-0.48-0.183-0.663 0l-3.247 3.247-3.402-3.402c-0.183-0.183-0.48-0.183-0.663 0s-0.183 0.48 0 0.663l3.815 3.815c0.295 0.295 0.295 0.775 0 1.069l-2.419 2.419c-0.183 0.183-0.183 0.48 0 0.663 0.091 0.091 0.211 0.137 0.331 0.137s0.24-0.046 0.331-0.137l2.419-2.419c0.575-0.575 0.649-1.463 0.224-2.119l2.955-2.955c0.547 0.438 1.221 0.675 1.931 0.675 0.828 0 1.606-0.322 2.192-0.908l5.69-5.689 2.039 2.039-5.827 5.827-1.216-1.216c-0.183-0.183-0.48-0.183-0.663 0s-0.183 0.48 0 0.663l1.242 1.242c-0.177 0.272-0.272 0.589-0.272 0.922 0 0.452 0.176 0.878 0.496 1.198l2.419 2.419c0.183 0.183 0.48 0.183 0.663 0s0.183-0.48 0-0.663l-2.419-2.419c-0.143-0.143-0.221-0.333-0.221-0.535s0.079-0.392 0.221-0.535l6.653-6.653c0.143-0.143 0.333-0.222 0.535-0.222s0.392 0.079 0.535 0.222l2.419 2.419c0.183 0.183 0.48 0.183 0.663 0s0.183-0.48-0-0.663zM11.944 3.849c0.168-0.168 0.387-0.265 0.622-0.278-0.008 0.010-0.016 0.019-0.024 0.029-0.162 0.219-0.228 0.488-0.186 0.757l0.081 0.512c0.109 0.687 0.48 1.288 1.046 1.693 0.045 0.032 0.091 0.062 0.137 0.091-0.185-0.036-0.355-0.126-0.491-0.263l-1.189-1.188c-0.371-0.374-0.37-0.98 0.002-1.353zM8.48 12.494c-0.374 0.374-0.982 0.374-1.355 0l-0.739-0.738c-0.374-0.374-0.374-0.982 0-1.355v0c0.373-0.373 0.981-0.374 1.354-0.001l0.739 0.739c0.181 0.181 0.281 0.422 0.281 0.678s-0.1 0.497-0.281 0.678zM10.85 10.828c-0.181 0.181-0.422 0.281-0.678 0.281s-0.497-0.1-0.678-0.281l-1.090-1.091c-0.001-0.001-0.001-0.001-0.002-0.002l-0.33-0.33c-0.374-0.374-0.374-0.982 0-1.355v0c0.373-0.373 0.981-0.374 1.355-0l1.422 1.422c0.373 0.374 0.373 0.982-0 1.355zM13.361 9.303c-0.181 0.181-0.422 0.281-0.678 0.281s-0.497-0.1-0.678-0.281l-0.492-0.492c-0-0-0-0-0-0l-1.422-1.422c-0.001-0.001-0.001-0.001-0.002-0.002l-0.44-0.44c-0.374-0.374-0.374-0.982 0-1.355v0c0.374-0.374 0.982-0.374 1.355 0l0.271 0.271c0.002 0.002 0.003 0.003 0.005 0.005l2.080 2.080c0.374 0.374 0.374 0.982 0 1.355zM17.486 4.731l-1.164 1.164-1.059 0.185c-0.436 0.076-0.874-0.024-1.234-0.281s-0.596-0.64-0.666-1.077l-0.081-0.512c-0.004-0.024 0.005-0.042 0.013-0.053s0.023-0.024 0.047-0.028l3.622-0.505c0.027-0.004 0.055-0.006 0.082-0.006 0.218 0 0.423 0.121 0.527 0.318l0.244 0.464-0.33 0.33z"></path>
</symbol>
<symbol id="icon-rudder" viewBox="0 0 32 32">
<title>rudder</title>
<path d="M16 10.182c-3.215 0-5.818 2.604-5.818 5.818s2.604 5.818 5.818 5.818 5.818-2.604 5.818-5.818-2.604-5.818-5.818-5.818zM29.004 14.545c-0.669-6.065-5.484-10.88-11.549-11.549v-2.996h-2.909v2.996c-6.065 0.669-10.88 5.484-11.549 11.549h-2.996v2.909h2.996c0.669 6.065 5.484 10.88 11.549 11.549v2.996h2.909v-2.996c6.065-0.669 10.88-5.484 11.549-11.549h2.996v-2.909h-2.996zM16 26.182c-5.622 0-10.182-4.56-10.182-10.182s4.56-10.182 10.182-10.182 10.182 4.56 10.182 10.182-4.56 10.182-10.182 10.182z"></path>
</symbol>
<symbol id="icon-idea" viewBox="0 0 32 32">
<title>idea</title>
<path d="M18.75 28.384h-8.428v1.033h2.929v1.033c0 0.857 0.693 1.55 1.55 1.55h2.4c0.857 0 1.55-0.693 1.55-1.55v-1.033h2.929v-1.033h-2.929zM17.717 30.45c0 0.283-0.233 0.517-0.517 0.517h-2.4c-0.283 0-0.517-0.233-0.517-0.517v-1.033h3.433v1.033z"></path>
<path d="M21.024 15.767h0.989l-6.016-8.636-6.016 8.636h0.989c0.945 0 1.72 0.762 1.72 1.701v0.592h-1.159v1.033h1.883v3.616h5.165v-3.616h1.883v-1.033h-1.159v-0.592c0-0.939 0.768-1.701 1.72-1.701zM15.997 13.575c0.334 0 0.598 0.271 0.598 0.598 0 0.334-0.271 0.598-0.598 0.598-0.334 0-0.598-0.271-0.598-0.598s0.265-0.598 0.598-0.598zM17.546 21.676h-3.099v-2.52h3.099v2.52zM18.271 17.468v0.592h-4.548v-0.592c0-1.203-0.781-2.224-1.865-2.589l3.622-5.197v2.954c-0.649 0.22-1.115 0.825-1.115 1.543 0 0.901 0.731 1.632 1.631 1.632s1.631-0.731 1.631-1.631c0-0.718-0.472-1.323-1.115-1.543v-2.954l3.622 5.197c-1.083 0.372-1.865 1.392-1.865 2.589z"></path>
<path d="M27.871 13.934h2.583v1.033h-2.583v-1.033z"></path>
<path d="M1.546 13.934h2.583v1.033h-2.583v-1.033z"></path>
<path d="M15.48 0h1.033v2.583h-1.033v-2.583z"></path>
<path d="M25.162 4.554l1.826-1.826 0.73 0.731-1.826 1.826-0.73-0.731z"></path>
<path d="M5.411 24.301l1.826-1.826 0.731 0.73-1.826 1.826-0.731-0.73z"></path>
<path d="M4.337 3.522l0.731-0.731 1.826 1.826-0.731 0.731-1.826-1.826z"></path>
<path d="M24.024 23.206l0.731-0.73 1.826 1.826-0.731 0.73-1.826-1.826z"></path>
<path d="M25.446 13.109c0-2.683-1.146-5.254-3.15-7.043-2.028-1.814-4.655-2.646-7.383-2.343-4.296 0.479-7.786 3.943-8.296 8.233-0.309 2.608 0.435 5.153 2.091 7.162 1.676 2.028 2.608 4.586 2.639 7.206h-1.027v1.033h11.357v-1.033h-1.027c0.032-2.589 0.97-5.121 2.74-7.332 1.342-1.688 2.054-3.723 2.054-5.883zM19.613 26.324h-7.232c-0.031-2.86-1.052-5.65-2.879-7.868-1.474-1.789-2.135-4.050-1.858-6.381 0.454-3.824 3.559-6.904 7.383-7.332 2.438-0.271 4.769 0.472 6.576 2.085 1.783 1.594 2.809 3.88 2.809 6.274 0 1.928-0.636 3.735-1.833 5.241-1.915 2.4-2.935 5.153-2.967 7.981z"></path>
</symbol>
<symbol id="icon-mission" viewBox="0 0 32 32">
<title>mission</title>
<path d="M19.555 8.961c0.122 0.122 0.282 0.183 0.442 0.183s0.32-0.061 0.442-0.183c0.244-0.244 0.244-0.64 0-0.884l-0.008-0.008c-0.244-0.244-0.64-0.244-0.884 0s-0.244 0.64 0 0.884l0.009 0.008z"></path>
<path d="M29.639 14.875l2.178-2.178c0.179-0.179 0.232-0.448 0.135-0.681s-0.325-0.386-0.577-0.386h-4.516c-0.59-2.416-1.829-4.618-3.6-6.389-2.573-2.573-5.995-3.991-9.634-3.991s-7.061 1.417-9.634 3.991c-2.573 2.573-3.991 5.995-3.991 9.634s1.417 7.061 3.991 9.634c0.765 0.765 1.606 1.427 2.505 1.981l-1.883 3.327c-0.109 0.194-0.108 0.431 0.004 0.623s0.317 0.31 0.54 0.31h3.219c0.225 0 0.433-0.121 0.544-0.317l1.331-2.352c1.090 0.276 2.221 0.419 3.375 0.419s2.285-0.143 3.375-0.419l1.331 2.352c0.111 0.196 0.319 0.317 0.544 0.317h3.219c0.222 0 0.428-0.118 0.54-0.31s0.113-0.429 0.004-0.623l-1.883-3.327c0.899-0.554 1.739-1.216 2.505-1.981 1.77-1.77 3.010-3.973 3.6-6.389h4.516c0.253 0 0.481-0.152 0.577-0.386s0.043-0.502-0.135-0.681l-2.178-2.178zM28.496 14.25h-4.362l1.37-1.37h4.362l-1.37 1.37zM8.011 29.5h-1.782l1.36-2.403c0.467 0.231 0.946 0.436 1.437 0.611l-1.015 1.792zM21.022 29.5h-1.782l-1.015-1.792c0.49-0.175 0.97-0.38 1.437-0.611l1.36 2.403zM22.375 23.625c-0.826 0.826-1.748 1.52-2.74 2.073-0.012 0.006-0.025 0.012-0.037 0.018-0.008 0.004-0.014 0.009-0.022 0.014-0.761 0.419-1.564 0.755-2.396 1.004-0.033 0.006-0.065 0.016-0.097 0.028-1.11 0.321-2.271 0.488-3.458 0.488s-2.349-0.167-3.458-0.488c-0.032-0.012-0.064-0.022-0.097-0.028-0.832-0.248-1.635-0.585-2.396-1.004-0.007-0.005-0.014-0.009-0.022-0.014-0.012-0.007-0.024-0.012-0.037-0.018-0.993-0.553-1.915-1.247-2.74-2.073-2.337-2.337-3.625-5.445-3.625-8.75s1.287-6.413 3.625-8.75c2.337-2.337 5.445-3.625 8.75-3.625s6.413 1.287 8.75 3.625c1.536 1.536 2.631 3.428 3.194 5.505h-0.324c-0.166 0-0.325 0.066-0.442 0.183l-1.659 1.659c-0.167-1.136-0.535-2.241-1.090-3.246-0.167-0.302-0.547-0.412-0.849-0.245s-0.412 0.547-0.245 0.849c0.593 1.075 0.925 2.243 1.010 3.42h-2.756c-0.139-1.266-0.699-2.439-1.612-3.352-1.062-1.063-2.475-1.648-3.977-1.648s-2.915 0.585-3.977 1.648c-1.062 1.063-1.648 2.475-1.648 3.977s0.585 2.915 1.647 3.977c1.062 1.062 2.475 1.648 3.978 1.648s2.915-0.585 3.977-1.648c0.914-0.914 1.473-2.086 1.612-3.352h2.753c-0.149 1.954-0.974 3.85-2.421 5.297-1.582 1.582-3.685 2.453-5.922 2.453s-4.34-0.871-5.922-2.453c-1.582-1.582-2.453-3.685-2.453-5.922s0.871-4.34 2.453-5.922c2.624-2.624 6.723-3.205 9.967-1.414 0.302 0.167 0.682 0.057 0.849-0.245s0.057-0.682-0.245-0.849c-1.79-0.988-3.898-1.382-5.936-1.109-2.105 0.282-4.014 1.228-5.52 2.733-1.818 1.818-2.819 4.235-2.819 6.806s1.001 4.988 2.819 6.806c1.818 1.818 4.235 2.819 6.806 2.819s4.988-1.001 6.806-2.819c1.477-1.477 2.414-3.342 2.716-5.4l1.657 1.657c0.117 0.117 0.276 0.183 0.442 0.183h0.323c-0.562 2.077-1.658 3.97-3.193 5.505zM15.666 13.697c-0.173-0.299-0.555-0.401-0.854-0.229l-1.5 0.866c-0.193 0.112-0.313 0.318-0.313 0.541s0.119 0.43 0.313 0.541l1.5 0.866c0.098 0.057 0.206 0.084 0.312 0.084 0.216 0 0.426-0.112 0.542-0.313 0.101-0.176 0.107-0.38 0.035-0.553h2.255c-0.132 0.931-0.56 1.791-1.237 2.469v0c-0.826 0.826-1.925 1.281-3.094 1.281s-2.267-0.455-3.094-1.281c-0.826-0.826-1.281-1.925-1.281-3.094s0.455-2.267 1.281-3.094c0.826-0.826 1.925-1.281 3.094-1.281s2.267 0.455 3.094 1.281c0.677 0.677 1.104 1.537 1.237 2.469h-2.255c0.072-0.174 0.067-0.378-0.035-0.553zM25.504 16.87l-1.37-1.37h4.362l1.37 1.37h-4.362z"></path>
</symbol>
<symbol id="icon-money" viewBox="0 0 32 32">
<title>money</title>
<path d="M21.372 20.522c-0.758 0-1.375-0.534-1.375-1.19s0.617-1.19 1.375-1.19 1.375 0.534 1.375 1.19c0 0.345 0.28 0.625 0.625 0.625s0.625-0.28 0.625-0.625c0-1.145-0.853-2.108-2-2.37v-0.325c0-0.345-0.28-0.625-0.625-0.625s-0.625 0.28-0.625 0.625v0.325c-1.147 0.261-2 1.224-2 2.37 0 1.345 1.178 2.44 2.625 2.44 0.758 0 1.375 0.534 1.375 1.19s-0.617 1.19-1.375 1.19c-0.758 0-1.375-0.534-1.375-1.19 0-0.345-0.28-0.625-0.625-0.625s-0.625 0.28-0.625 0.625c0 1.145 0.853 2.108 2 2.37v0.27c0 0.345 0.28 0.625 0.625 0.625s0.625-0.28 0.625-0.625v-0.27c1.147-0.261 2-1.224 2-2.37 0-1.346-1.178-2.44-2.625-2.44z"></path>
<path d="M28.218 16.805c-0.816-1.272-1.967-2.29-3.326-2.944-0.311-0.15-0.685-0.019-0.834 0.293s-0.019 0.684 0.293 0.834c2.369 1.139 3.9 3.573 3.9 6.2 0 1.124-0.277 2.239-0.801 3.224-0.162 0.305-0.047 0.683 0.258 0.845 0.093 0.050 0.194 0.073 0.293 0.073 0.224 0 0.44-0.12 0.552-0.332 0.62-1.165 0.948-2.483 0.948-3.812 0-1.56-0.443-3.076-1.282-4.383z"></path>
<path d="M22.355 13.063l-0.042-0c-0.345 0-0.625 0.28-0.625 0.625s0.28 0.625 0.625 0.625l0.036 0c0.001 0 0.002 0 0.003 0 0.344 0 0.623-0.278 0.625-0.622s-0.277-0.626-0.622-0.628z"></path>
<path d="M18.4 27.388c-2.369-1.139-3.9-3.573-3.9-6.2 0-1.124 0.277-2.239 0.801-3.224 0.162-0.305 0.047-0.683-0.258-0.845s-0.683-0.047-0.845 0.258c-0.62 1.165-0.948 2.483-0.948 3.812 0 1.56 0.443 3.075 1.282 4.383 0.816 1.272 1.967 2.29 3.326 2.944 0.087 0.042 0.18 0.062 0.27 0.062 0.233 0 0.456-0.131 0.564-0.354 0.149-0.311 0.019-0.685-0.293-0.834z"></path>
<path d="M20.438 28.063l-0.036-0c-0.347-0.001-0.626 0.277-0.628 0.622s0.277 0.626 0.622 0.628l0.042 0c0.345 0 0.625-0.28 0.625-0.625s-0.28-0.625-0.625-0.625z"></path>
<path d="M24.213 10.948c-0.076-0.181-0.169-0.352-0.278-0.511h1.627c1.585 0 2.875-1.29 2.875-2.875s-1.29-2.875-2.875-2.875h-5.005c0.318-0.463 0.505-1.022 0.505-1.625 0-1.585-1.29-2.875-2.875-2.875h-15.312c-1.585 0-2.875 1.29-2.875 2.875s1.29 2.875 2.875 2.875h5.005c-0.318 0.463-0.505 1.022-0.505 1.625s0.187 1.162 0.505 1.625h-1.63c-1.585 0-2.875 1.29-2.875 2.875 0 0.91 0.426 1.723 1.088 2.25-0.663 0.527-1.088 1.34-1.088 2.25s0.426 1.723 1.088 2.25c-0.663 0.527-1.088 1.34-1.088 2.25s0.426 1.723 1.088 2.25c-0.663 0.527-1.088 1.34-1.088 2.25 0 1.585 1.29 2.875 2.875 2.875h7.366c1.94 2.075 4.701 3.375 7.759 3.375 5.859 0 10.625-4.766 10.625-10.625 0-4.876-3.302-8.995-7.787-10.24zM25.562 5.938c0.896 0 1.625 0.729 1.625 1.625s-0.729 1.625-1.625 1.625h-15.312c-0.896 0-1.625-0.729-1.625-1.625s0.729-1.625 1.625-1.625h15.312zM2.875 4.688c-0.896 0-1.625-0.729-1.625-1.625s0.729-1.625 1.625-1.625h15.312c0.896 0 1.625 0.729 1.625 1.625s-0.729 1.625-1.625 1.625h-15.312zM6.25 10.437h15.312c0.252 0 0.493 0.059 0.709 0.163-0.296-0.025-0.595-0.038-0.896-0.038-2.934 0-5.594 1.196-7.519 3.125h-7.606c-0.896 0-1.625-0.729-1.625-1.625s0.729-1.625 1.625-1.625zM6.25 14.937h6.538c-0.71 0.972-1.258 2.068-1.606 3.25h-4.932c-0.896 0-1.625-0.729-1.625-1.625s0.729-1.625 1.625-1.625zM6.25 19.437h4.645c-0.095 0.57-0.145 1.154-0.145 1.75 0 0.509 0.037 1.010 0.106 1.5h-4.606c-0.896 0-1.625-0.729-1.625-1.625s0.729-1.625 1.625-1.625zM6.25 27.187c-0.896 0-1.625-0.729-1.625-1.625s0.729-1.625 1.625-1.625h4.862c0.315 1.176 0.828 2.272 1.5 3.25h-6.361zM21.375 30.563c-5.169 0-9.375-4.206-9.375-9.375s4.206-9.375 9.375-9.375 9.375 4.206 9.375 9.375-4.206 9.375-9.375 9.375z"></path>
</symbol>
<symbol id="icon-portfolio" viewBox="0 0 32 32">
<title>portfolio</title>
<path d="M25.875 9.297c0.345 0 0.625-0.28 0.625-0.625v-6.797c0-1.034-0.841-1.875-1.875-1.875h-22.75c-1.034 0-1.875 0.841-1.875 1.875v28.25c0 1.034 0.841 1.875 1.875 1.875h22.75c1.034 0 1.875-0.841 1.875-1.875v-4.605c0-0.345-0.28-0.625-0.625-0.625s-0.625 0.28-0.625 0.625v4.605c0 0.345-0.28 0.625-0.625 0.625h-22.75c-0.345 0-0.625-0.28-0.625-0.625v-28.25c0-0.345 0.28-0.625 0.625-0.625h22.75c0.345 0 0.625 0.28 0.625 0.625v6.797c0 0.345 0.28 0.625 0.625 0.625z"></path>
<path d="M13.25 3.375c-3.171 0-5.75 2.579-5.75 5.75 0 1.645 0.694 3.13 1.805 4.179 0.021 0.022 0.043 0.043 0.067 0.063 1.023 0.936 2.385 1.508 3.878 1.508s2.854-0.572 3.878-1.508c0.024-0.019 0.046-0.040 0.067-0.063 1.111-1.049 1.805-2.534 1.805-4.179 0-3.171-2.579-5.75-5.75-5.75zM13.25 13.625c-1.021 0-1.962-0.342-2.718-0.917 0.549-0.974 1.574-1.583 2.718-1.583s2.169 0.609 2.718 1.583c-0.756 0.575-1.698 0.917-2.718 0.917zM12.25 8.875v-0.406c0-0.551 0.449-1 1-1s1 0.449 1 1v0.406c0 0.551-0.449 1-1 1s-1-0.449-1-1zM16.872 11.793c-0.461-0.684-1.1-1.215-1.841-1.544 0.294-0.38 0.47-0.857 0.47-1.374v-0.406c0-1.241-1.009-2.25-2.25-2.25s-2.25 1.009-2.25 2.25v0.406c0 0.517 0.176 0.994 0.47 1.374-0.742 0.328-1.38 0.86-1.841 1.544-0.552-0.747-0.879-1.67-0.879-2.668 0-2.481 2.019-4.5 4.5-4.5s4.5 2.019 4.5 4.5c0 0.998-0.327 1.921-0.879 2.668z"></path>
<path d="M16.625 27.375h-3.375c-0.345 0-0.625 0.28-0.625 0.625s0.28 0.625 0.625 0.625h3.375c0.345 0 0.625-0.28 0.625-0.625s-0.28-0.625-0.625-0.625z"></path>
<path d="M16.625 23.875h-8.875c-0.345 0-0.625 0.28-0.625 0.625s0.28 0.625 0.625 0.625h8.875c0.345 0 0.625-0.28 0.625-0.625s-0.28-0.625-0.625-0.625z"></path>
<path d="M16.625 20.375h-8.875c-0.345 0-0.625 0.28-0.625 0.625s0.28 0.625 0.625 0.625h8.875c0.345 0 0.625-0.28 0.625-0.625s-0.28-0.625-0.625-0.625z"></path>
<path d="M5.523 17.058c-0.116-0.116-0.277-0.183-0.442-0.183s-0.326 0.067-0.442 0.183c-0.116 0.116-0.183 0.277-0.183 0.442s0.067 0.326 0.183 0.442c0.117 0.116 0.277 0.183 0.442 0.183s0.326-0.067 0.442-0.183c0.116-0.116 0.183-0.277 0.183-0.442s-0.067-0.326-0.183-0.442z"></path>
<path d="M5.523 20.558c-0.117-0.116-0.277-0.183-0.442-0.183s-0.325 0.067-0.442 0.183c-0.116 0.116-0.183 0.277-0.183 0.442s0.067 0.326 0.183 0.442c0.117 0.116 0.277 0.183 0.442 0.183s0.326-0.067 0.442-0.183c0.116-0.116 0.183-0.277 0.183-0.442s-0.067-0.326-0.183-0.442z"></path>
<path d="M5.523 24.058c-0.117-0.116-0.277-0.183-0.442-0.183s-0.325 0.067-0.442 0.183c-0.116 0.116-0.183 0.277-0.183 0.442s0.067 0.326 0.183 0.442c0.116 0.116 0.277 0.183 0.442 0.183s0.326-0.067 0.442-0.183c0.116-0.116 0.183-0.277 0.183-0.442s-0.067-0.326-0.183-0.442z"></path>
<path d="M16.625 16.875h-8.875c-0.345 0-0.625 0.28-0.625 0.625s0.28 0.625 0.625 0.625h8.875c0.345 0 0.625-0.28 0.625-0.625s-0.28-0.625-0.625-0.625z"></path>
<path d="M30.688 8.145c-0.607-0.351-1.315-0.444-1.992-0.262s-1.243 0.616-1.594 1.223l-7.865 13.623c-0.043 0.075-0.070 0.157-0.080 0.243l-0.554 4.959c-0.027 0.247 0.094 0.486 0.309 0.611 0.097 0.056 0.205 0.084 0.312 0.084 0.131 0 0.261-0.041 0.371-0.122l4.018-2.959c0.069-0.051 0.128-0.116 0.171-0.191l7.865-13.623c0.724-1.254 0.293-2.862-0.961-3.586zM20.004 26.65l0.289-2.59 1.809 1.044-2.098 1.545zM23.013 24.187l-2.382-1.375 6.312-10.932 2.382 1.375-6.312 10.932zM30.566 11.106l-0.616 1.067-2.382-1.375 0.616-1.067c0.184-0.318 0.48-0.546 0.835-0.641s0.725-0.046 1.043 0.137c0.318 0.184 0.546 0.48 0.641 0.835s0.046 0.725-0.137 1.043z"></path>
</symbol>
<symbol id="icon-two" viewBox="0 0 32 32">
<title>two</title>
<path d="M6.625 15.525c0 2.813 0.648 5.629 1.875 8.16v7.377c0 0.518 0.42 0.938 0.938 0.938h11.25c0.518 0 0.938-0.42 0.938-0.938v-5.344c0.157-0.16 0.419-0.426 0.855-0.865 1.866-1.88 2.895-4.374 2.895-7.023 0-2.036-1.287-3.746-3.044-4.406l2.811-9.837c0.426-1.491-0.44-3.051-1.93-3.477-1.513-0.435-3.059 0.465-3.478 1.931l-1.046 3.66-1.046-3.662c-0.427-1.488-1.987-2.354-3.477-1.93-1.491 0.426-2.357 1.986-1.931 3.477l1.128 3.949c-0.058-0.003-0.115-0.006-0.174-0.006-1.295 0-2.388 0.88-2.713 2.074-0.321-0.128-0.671-0.199-1.037-0.199-1.551 0-2.813 1.262-2.813 2.813zM23.5 17.83c0 2.151-0.834 4.176-2.35 5.702-0.317 0.319-0.6 0.605-0.804 0.813-0.446 0.454-0.596 0.606-0.596 0.998v4.782h-9.375v-6.657c0-0.145-0.040-0.3-0.099-0.419-0.978-1.956-1.567-4.108-1.73-6.289 0.281 0.094 0.58 0.145 0.892 0.145 0.72 0 1.377-0.272 1.875-0.718 0.498 0.447 1.155 0.718 1.875 0.718 0.584 0 1.126-0.179 1.576-0.484 0.453 0.775 1.122 1.408 1.924 1.818-1.557 1.201-2.563 3.084-2.563 5.199 0 0.518 0.42 0.938 0.938 0.938s0.937-0.42 0.937-0.938c0-2.585 2.103-4.688 4.688-4.688 0.518 0 0.938-0.42 0.938-0.938s-0.42-0.938-0.938-0.938c-1.157 0-0.724 0-1.875 0-1.222 0-2.265-0.784-2.652-1.875h4.527c1.551 0 2.812 1.272 2.812 2.83zM14.678 1.913c0.497-0.141 1.018 0.147 1.16 0.643l1.947 6.815c0.115 0.402 0.483 0.68 0.902 0.68s0.786-0.278 0.901-0.68l1.947-6.815c0.138-0.482 0.646-0.791 1.159-0.644 0.497 0.142 0.786 0.662 0.644 1.159l-2.872 10.053h-4.466v-2.782c0-0.253-0.034-0.516-0.115-0.8l-1.849-6.471c-0.142-0.497 0.147-1.017 0.642-1.159zM12.25 10.343c0-0.517 0.421-0.938 0.938-0.938s0.938 0.421 0.938 0.938v3.75c0 0.517-0.42 0.938-0.938 0.938s-0.938-0.421-0.938-0.938c0-0.454 0-3.293 0-3.75zM9.438 11.28c0.517 0 0.938 0.421 0.938 0.938v1.875c0 0.517-0.42 0.938-0.938 0.938s-0.938-0.421-0.938-0.938v-1.875c0-0.517 0.421-0.938 0.938-0.938z"></path>
</symbol>
<symbol id="icon-globe" viewBox="0 0 32 32">
<title>globe</title>
<path d="M16 0c-8.822 0-16 7.178-16 16s7.178 16 16 16 16-7.178 16-16-7.178-16-16-16zM15.063 7.854c-1.426-0.061-2.838-0.262-4.186-0.588 0.215-0.51 0.449-1 0.701-1.465 1.034-1.905 2.303-3.241 3.485-3.726zM15.063 9.73v5.333h-5.856c0.083-2.081 0.437-4.147 1.024-6.027 1.555 0.392 3.187 0.629 4.832 0.694zM15.063 16.938v5.333c-1.645 0.066-3.277 0.303-4.832 0.694-0.587-1.879-0.941-3.946-1.024-6.027zM15.063 24.146v5.778c-1.183-0.484-2.452-1.821-3.485-3.726-0.252-0.464-0.486-0.954-0.701-1.465 1.348-0.326 2.76-0.526 4.186-0.588zM16.938 24.146c1.426 0.061 2.838 0.262 4.186 0.588-0.215 0.51-0.449 1-0.701 1.465-1.034 1.905-2.303 3.241-3.485 3.726zM16.938 22.27v-5.333h5.856c-0.083 2.081-0.437 4.147-1.024 6.027-1.555-0.392-3.187-0.629-4.832-0.694zM16.938 15.063v-5.333c1.645-0.066 3.277-0.303 4.832-0.694 0.587 1.879 0.941 3.946 1.024 6.027zM16.938 7.854v-5.778c1.183 0.484 2.452 1.821 3.485 3.726 0.252 0.464 0.486 0.954 0.701 1.465-1.348 0.326-2.76 0.526-4.186 0.588zM22.071 4.907c-0.469-0.865-0.98-1.628-1.517-2.279 1.875 0.64 3.573 1.664 5 2.978-0.814 0.436-1.692 0.815-2.615 1.132-0.262-0.636-0.552-1.248-0.868-1.831zM9.929 4.907c-0.316 0.583-0.606 1.195-0.868 1.831-0.923-0.317-1.801-0.696-2.615-1.132 1.428-1.313 3.126-2.338 5-2.978-0.538 0.651-1.047 1.413-1.517 2.279zM8.427 8.5c-0.64 2.047-1.016 4.279-1.097 6.562h-5.423c0.201-3.047 1.371-5.834 3.206-8.052 1.018 0.584 2.134 1.084 3.314 1.49zM7.33 16.938c0.081 2.284 0.457 4.515 1.097 6.562-1.181 0.406-2.296 0.906-3.314 1.49-1.835-2.218-3.005-5.005-3.206-8.052zM9.061 25.262c0.262 0.636 0.552 1.248 0.868 1.831 0.47 0.865 0.979 1.628 1.517 2.279-1.874-0.64-3.572-1.664-5-2.978 0.814-0.436 1.692-0.815 2.615-1.132zM22.071 27.093c0.316-0.583 0.606-1.195 0.868-1.831 0.923 0.317 1.801 0.696 2.615 1.132-1.428 1.313-3.126 2.338-5 2.978 0.538-0.651 1.047-1.413 1.517-2.279zM23.573 23.5c0.64-2.047 1.016-4.279 1.097-6.562h5.423c-0.201 3.047-1.371 5.834-3.206 8.052-1.018-0.584-2.134-1.084-3.314-1.49zM24.67 15.063c-0.081-2.284-0.457-4.515-1.097-6.562 1.181-0.406 2.296-0.906 3.314-1.49 1.835 2.218 3.005 5.005 3.206 8.052z"></path>
</symbol>
</defs>
</svg>
