<svg aria-hidden="true" style="position: absolute; width: 0; height: 0; overflow: hidden;" version="1.1" xmlns="http://www.w3.org/2000/svg" xmlns:xlink="http://www.w3.org/1999/xlink">
<defs>
<symbol id="telegram" viewBox="0 0 32 32">
<title>telegram</title>
<path fill="#039be5" style="fill: var(--color1, #039be5)" d="M32 16c0 8.837-7.163 16-16 16s-16-7.163-16-16c0-8.837 7.163-16 16-16s16 7.163 16 16z"></path>
<path fill="#fff" style="fill: var(--color2, #fff)" d="M7.321 15.653l15.427-5.948c0.716-0.259 1.341 0.175 1.109 1.257l0.001-0.001-2.627 12.375c-0.195 0.877-0.716 1.091-1.445 0.677l-4-2.948-1.929 1.859c-0.213 0.213-0.393 0.393-0.807 0.393l0.284-4.071 7.413-6.697c0.323-0.284-0.072-0.444-0.497-0.161l-9.161 5.768-3.949-1.232c-0.857-0.272-0.876-0.857 0.181-1.271z"></path>
</symbol>
<symbol id="facebook" viewBox="0 0 32 32">
<title>facebook</title>
<path fill="#3b5998" style="fill: var(--color3, #3b5998)" d="M16 0c8.837 0 16 7.164 16 16 0 8.837-7.163 16-16 16s-16-7.163-16-16c0-8.836 7.163-16 16-16z"></path>
<path fill="#fff" style="fill: var(--color2, #fff)" d="M17.948 11.015h2.062v-3.046h-2.424v0.011c-2.937 0.104-3.539 1.755-3.592 3.489h-0.006v1.521h-2v2.983h2v7.996h3.014v-7.996h2.469l0.477-2.983h-2.945v-0.919c0-0.586 0.39-1.056 0.945-1.056z"></path>
</symbol>
<symbol id="youtube" viewBox="0 0 32 32">
<title>youtube</title>
<path fill="#d22215" style="fill: var(--color4, #d22215)" d="M32 16c0 8.837-7.163 16-16 16s-16-7.163-16-16c0-8.837 7.163-16 16-16s16 7.163 16 16z"></path>
<path fill="#a81411" style="fill: var(--color5, #a81411)" d="M24.054 10.646c-0.48 0.146-0.98 0.272-1.481 0.398-3.556 0.754-8.296-1.293-10.343 2.047-1.707 2.656-2.246 5.979-4.189 8.354l10.374 10.374c6.904-1.045 12.361-6.502 13.405-13.407l-7.765-7.766z"></path>
<path fill="#fff" style="fill: var(--color2, #fff)" d="M21.353 9.521h-10.706c-2.101 0-3.803 1.703-3.803 3.803v5.352c0 2.101 1.703 3.803 3.803 3.803h10.706c2.101 0 3.803-1.703 3.803-3.803v-5.352c0-2.1-1.703-3.803-3.803-3.803v0zM18.781 16.26l-5.008 2.388c-0.133 0.064-0.288-0.034-0.288-0.181v-4.926c0-0.15 0.158-0.247 0.292-0.179l5.008 2.538c0.149 0.075 0.146 0.289-0.004 0.361v0z"></path>
<path fill="#d1d1d1" style="fill: var(--color6, #d1d1d1)" d="M21.353 9.521h-5.461v4.913l2.893 1.466c0.149 0.075 0.146 0.289-0.004 0.361l-2.889 1.378v4.841h5.461c2.101 0 3.803-1.703 3.803-3.803v-5.352c0-2.1-1.703-3.803-3.803-3.803z"></path>
</symbol>
</defs>
</svg>
