<svg aria-hidden="true" style="position: absolute; width: 0; height: 0; overflow: hidden;" version="1.1" xmlns="http://www.w3.org/2000/svg" xmlns:xlink="http://www.w3.org/1999/xlink">
<defs>
<symbol id="icon-aim1" viewBox="0 0 32 32">
<title>aim1</title>
<path d="M16 10.182c-3.215 0-5.818 2.604-5.818 5.818s2.604 5.818 5.818 5.818 5.818-2.604 5.818-5.818-2.604-5.818-5.818-5.818zM29.004 14.545c-0.669-6.065-5.484-10.88-11.549-11.549v-2.996h-2.909v2.996c-6.065 0.669-10.88 5.484-11.549 11.549h-2.996v2.909h2.996c0.669 6.065 5.484 10.88 11.549 11.549v2.996h2.909v-2.996c6.065-0.669 10.88-5.484 11.549-11.549h2.996v-2.909h-2.996zM16 26.182c-5.622 0-10.182-4.56-10.182-10.182s4.56-10.182 10.182-10.182 10.182 4.56 10.182 10.182-4.56 10.182-10.182 10.182z"></path>
</symbol>
</defs>
</svg>
